<?xml version="1.0" encoding="utf-8"?>
<!-- Generator: Adobe Illustrator 16.0.2, SVG Export Plug-In . SVG Version: 6.00 Build 0)  -->
<!DOCTYPE svg PUBLIC "-//W3C//DTD SVG 1.1//EN" "http://www.w3.org/Graphics/SVG/1.1/DTD/svg11.dtd">
<svg version="1.1" id="Слой_1" xmlns="http://www.w3.org/2000/svg" xmlns:xlink="http://www.w3.org/1999/xlink" x="0px" y="0px"
	 width="35px" height="35px" viewBox="0 0 35 35" enable-background="new 0 0 35 35" xml:space="preserve">
<path fill="#D9232D" d="M19.62,15.415c0.522,1.404-2.347,4.562-2.547,6.755c-0.066,0.73,0.82,0.617,0.616,0.924
	c-0.322,0.486-1.697,1.342-1.971-0.24c-0.271-1.559,0.286-2.256,0.931-3.416c0.157-0.283,1.378-2.468,1.201-2.839
	c-0.11-0.231-0.313-0.103-0.583-0.01c-0.283,0.097-1.426-0.171-1.164-0.662c0.446-0.837-1.182-0.843-1.297-0.851
	c-0.361-0.026-1.596,0.47-3.231,2.963c-2.521,3.844-0.442,6.02,2.045,3.07c1.093-1.297,2.232-3.473,2.118-4.692
	c-0.051-0.549,1.056-0.593,1.257-1.267c0.097-0.322-0.614-0.695-0.434-1.005c0.854-1.46,1.59-3.239,2.576-5.411
	c0.494-1.09-0.313-0.523-1.308-0.704c-0.93-0.169-6.647-1.8-7.97-1.475c-0.9,0.221-1.49,1.591-2.106,3.063
	c-1.946,4.645-5.301,13.68-5.391,14.963c-0.036,0.523,0.724,0.992,3.996,0.35c1.734-0.342,5.763-1.334,7.831-1.156
	c1.582,0.137,2.4,1.26,3.03,1.318c0.59,0.053,1.266-1.117,2.709-1.262c2.413-0.242,10.7,2.654,12.014,1.232
	c0.346-0.373-0.425-2.664-0.808-3.891c-0.156-0.504-0.544-1.947-0.995-3.489c-0.292-0.995-0.473-1.368-2.232-1.619
	c-0.719-0.103-0.701,0.224-1.064,0.789c-0.784,1.22-1.721,2.979-2.999,4.013c-2.307,1.865-4.09,1.932-4.824,1.221
	c-1.667-1.615,0.585-4.327,1.392-5.135c0.453-0.453,1.582-1.609,3.595-1.869c0.777-0.101,1.846-0.182,2.278-0.598
	c0.711-0.685,1.009-1.639,1.13-2.775c0.053-0.499,1.226-1.996,1.503-2.406c1.502-2.222,0.58-0.106-1.38,2.106
	c-0.36,0.407-0.882,0.981-1.26,1.416c-0.305,0.351-0.676,0.743-1.056,0.995c-1.589,1.057-1.796-1.005-1.609-2.454
	c0.091-0.704,0.148-2.576,0.04-3.067c-0.11-0.503-0.571-0.442-0.895,0.03c-1.341,1.958-1.095,3.941-0.805,4.13
	c0.269,0.174,0.933,0.089,0.94,0.189c0.03,0.382-0.005,0.613,0.065,0.945c0.062,0.288-1.393,0.323-1.817-0.537
	c-0.274-0.554-0.225-2.058,0.302-3.494c0.43-1.17,1.01-1.909,1.113-2.038c0.692-0.868,1.463-1.386,2.031-0.895
	c0.442,0.382,0.235,2.609,0.222,3.107c-0.037,1.277-0.03,3.701,0.59,2.898c1.499-1.939,1.474-2.79,3.885-5.653
	c0.802-0.952,3.03-2.624,0.958,1.349c-0.407,0.782-0.69,1.37-0.787,1.829c-0.074,0.355-0.143,2.054-0.01,2.887
	c0.188,1.182,0.876,2.295,1.016,2.836c0.058,0.224-0.478,0.221-0.513,0.281c-0.199,0.336-1.35-3.217-1.479-3.007
	c-0.75,1.221-1.428,2.023-2.413,2.95c-0.226,0.211-1.193-0.062-1.918-0.055c-1.408,0.014-2.387,0.725-3.178,1.475
	c-0.927,0.881-2.333,2.574-1.314,3.729c0.804,0.908,2.473,0.141,3.5-0.859c2.407-2.338,2.534-3.995,2.568-4.303
	c0.061-0.554,2.274-2.197,2.146-2.014c-0.036,0.05-0.001,0.309,0.08,0.552c0.113,0.342,0.852,0.498,1.535,0.697
	c0.995,0.29,0.976,0.277,1.268,1.237c0.482,1.59,1.333,4.563,1.458,5.047c0.208,0.814,1.253,3.617,0.643,4.17
	c-1.571,1.426-9.67-1.443-12.678-1.188c-1.769,0.15-2.249,1.746-2.96,1.746c-0.818,0-1.505-1.68-3.071-1.764
	c-1.903-0.105-5.616,0.523-7.723,1.076c-2.414,0.633-5.823,0.766-5.007-1.313c0.354-0.9,3.666-10.045,5.704-15.395
	C7.761,7.24,8.692,6.053,9.765,5.81c1.894-0.428,7.203,1.537,8.973,1.295c1.249-0.17,3.502-1.097,2.874-0.048
	c-2.957,4.936-3.589,8.043-5.143,11.291c-1.045,2.186-1.958,3.289-3.197,4.203C11.836,23.611,9,23.871,9.725,20.01
	c0.321-1.713,2.936-5.296,4.773-6.087c0.513-0.221,0.869,0.134,1.368,0.174c0.499,0.04,0.727-0.067,0.806-0.143
	c0.316-0.299,0.622,1.45,1.148,1.468C18.111,15.432,19.494,15.077,19.62,15.415z"/>
<path fill="#D9232D" d="M32.893,27.459c-0.317,0.033-11.859-0.025-12.938,0.127c-0.997,0.141-1.395,1.664-2.799,1.664
	c-1.25,0-1.955-1.67-2.833-1.717c-1.742-0.096-11.553-0.035-12.497-0.055c-1.101-0.021-0.969-0.867-0.375-0.885
	c3.11-0.092,12.581,0.029,13.355,0.107c0.805,0.08,1.395,1.582,2.35,1.609c1.136,0.031,1.414-1.457,2.265-1.59
	c0.989-0.154,11.456-0.033,13.612-0.127C34.275,26.541,34.249,27.318,32.893,27.459z"/>
</svg>
