<?xml version="1.0" encoding="utf-8"?>
<!-- Generator: Adobe Illustrator 16.0.2, SVG Export Plug-In . SVG Version: 6.00 Build 0)  -->
<!DOCTYPE svg PUBLIC "-//W3C//DTD SVG 1.1//EN" "http://www.w3.org/Graphics/SVG/1.1/DTD/svg11.dtd">
<svg version="1.1" xmlns="http://www.w3.org/2000/svg" xmlns:xlink="http://www.w3.org/1999/xlink" x="0px" y="0px"
	 width="303.59px" height="35.354px" viewBox="0 0 303.59 35.354" enable-background="new 0 0 303.59 35.354" xml:space="preserve">
<g id="Слой_1">
	<path fill="#D9232D" d="M27.131,15.193c0.762,2.048-3.419,6.649-3.71,9.844c-0.096,1.065,1.195,0.9,0.898,1.348
		c-0.471,0.708-2.473,1.953-2.873-0.352c-0.394-2.271,0.416-3.286,1.356-4.979c0.229-0.409,2.008-3.595,1.751-4.136
		c-0.162-0.337-0.457-0.149-0.851-0.015c-0.414,0.141-2.078-0.248-1.695-0.963c0.65-1.221-1.723-1.229-1.89-1.24
		c-0.526-0.038-2.325,0.684-4.708,4.319c-3.676,5.599-0.646,8.772,2.978,4.474c1.595-1.89,3.254-5.062,3.088-6.839
		c-0.076-0.8,1.539-0.865,1.831-1.845c0.14-0.47-0.896-1.013-0.631-1.464c1.242-2.127,2.316-4.721,3.752-7.886
		c0.72-1.589-0.454-0.762-1.905-1.025c-1.355-0.248-9.686-2.624-11.613-2.15c-1.312,0.323-2.171,2.32-3.07,4.465
		c-2.836,6.766-7.725,19.93-7.855,21.804C1.932,29.316,3.041,30,7.808,29.063c2.529-0.501,8.397-1.947,11.411-1.686
		c2.305,0.199,3.497,1.835,4.416,1.918c0.86,0.079,1.844-1.627,3.947-1.837c3.516-0.353,15.591,3.866,17.508,1.798
		c0.502-0.544-0.623-3.883-1.178-5.67c-0.228-0.733-0.792-2.836-1.452-5.085c-0.425-1.451-0.688-1.994-3.252-2.36
		c-1.046-0.149-1.021,0.326-1.551,1.15c-1.144,1.777-2.507,4.345-4.369,5.849c-3.362,2.716-5.961,2.813-7.031,1.776
		c-2.429-2.353,0.852-6.305,2.028-7.48c0.661-0.663,2.306-2.346,5.238-2.726c1.132-0.147,2.689-0.265,3.321-0.871
		c1.035-0.997,1.47-2.389,1.645-4.044c0.078-0.726,1.787-2.909,2.191-3.505c2.188-3.237,0.846-0.156-2.011,3.068
		c-0.525,0.594-1.285,1.43-1.834,2.063c-0.445,0.51-0.984,1.082-1.539,1.449c-2.316,1.54-2.616-1.463-2.345-3.574
		c0.131-1.026,0.216-3.754,0.059-4.469c-0.161-0.733-0.833-0.645-1.304,0.044c-1.955,2.853-1.596,5.743-1.173,6.017
		c0.39,0.254,1.358,0.13,1.371,0.276c0.043,0.558-0.008,0.895,0.095,1.378c0.088,0.421-2.03,0.471-2.649-0.782
		c-0.399-0.808-0.326-2.998,0.44-5.092c0.627-1.707,1.472-2.782,1.622-2.97c1.009-1.265,2.133-2.019,2.96-1.305
		c0.646,0.557,0.345,3.803,0.323,4.53c-0.053,1.858-0.043,5.391,0.86,4.222c2.183-2.826,2.147-4.066,5.661-8.239
		c1.167-1.385,4.415-3.822,1.396,1.967c-0.594,1.138-1.006,1.996-1.147,2.665c-0.109,0.517-0.208,2.993-0.015,4.205
		c0.275,1.723,1.276,3.346,1.48,4.133c0.084,0.327-0.696,0.323-0.748,0.41c-0.29,0.49-1.966-4.688-2.155-4.381
		c-1.093,1.779-2.08,2.948-3.516,4.299c-0.33,0.308-1.739-0.09-2.794-0.08c-2.051,0.021-3.478,1.055-4.632,2.149
		c-1.35,1.282-3.399,3.751-1.914,5.431c1.171,1.326,3.603,0.206,5.099-1.249c3.508-3.41,3.693-5.823,3.742-6.271
		c0.089-0.807,3.315-3.203,3.127-2.935c-0.052,0.073-0.001,0.449,0.117,0.805c0.167,0.498,1.242,0.727,2.237,1.016
		c1.45,0.422,1.421,0.404,1.845,1.803c0.704,2.316,1.945,6.646,2.127,7.356c0.302,1.187,1.826,5.269,0.937,6.075
		c-2.291,2.078-14.093-2.104-18.473-1.73c-2.578,0.22-3.278,2.545-4.314,2.545c-1.191,0-2.194-2.446-4.476-2.569
		c-2.771-0.154-8.183,0.764-11.254,1.566C4.369,31.039-0.6,31.233,0.59,28.205c0.516-1.312,5.341-14.639,8.311-22.434
		c0.949-2.49,2.307-4.22,3.869-4.573c2.76-0.625,10.497,2.239,13.075,1.887c1.82-0.248,5.104-1.598,4.188-0.069
		c-4.309,7.191-5.229,11.72-7.493,16.453c-1.524,3.184-2.854,4.793-4.659,6.126c-2.09,1.544-6.225,1.923-5.169-3.704
		c0.468-2.496,4.28-7.717,6.957-8.871c0.748-0.322,1.266,0.196,1.993,0.254c0.726,0.06,1.059-0.098,1.174-0.208
		c0.461-0.434,0.907,2.114,1.673,2.14C24.934,15.219,26.947,14.701,27.131,15.193z"/>
	<path fill="#D9232D" d="M46.473,32.745C46.01,32.793,29.19,32.707,27.62,32.93c-1.453,0.204-2.033,2.425-4.079,2.425
		c-1.821,0-2.848-2.432-4.127-2.503c-2.537-0.137-16.833-0.051-18.21-0.079c-1.604-0.03-1.411-1.261-0.546-1.288
		c4.533-0.138,18.333,0.043,19.46,0.156c1.173,0.117,2.032,2.307,3.424,2.346c1.657,0.047,2.06-2.124,3.3-2.318
		c1.443-0.222,16.695-0.049,19.836-0.184C48.487,31.406,48.449,32.541,46.473,32.745z"/>
</g>
<g id="Слой_2">
	<g>
		<path fill="#666666" d="M54.323,18.34V4.063h2.798V18.34H54.323z"/>
		<path fill="#666666" d="M71.255,18.34h-2.789v-6.162H63.24v6.162h-2.798V4.063h2.798v5.596h5.226V4.063h2.789V18.34z"/>
		<path fill="#666666" d="M80.19,6.377c-1.053,0-1.868,0.428-2.446,1.284s-0.867,2.049-0.867,3.579c0,3.184,1.104,4.775,3.313,4.775
			c0.927,0,2.049-0.25,3.367-0.752v2.539c-1.083,0.488-2.292,0.732-3.628,0.732c-1.919,0-3.388-0.63-4.404-1.89
			c-1.017-1.26-1.525-3.068-1.525-5.425c0-1.484,0.25-2.785,0.749-3.901s1.217-1.973,2.152-2.568
			c0.936-0.596,2.032-0.894,3.29-0.894c1.282,0,2.569,0.335,3.863,1.006l-0.903,2.461c-0.494-0.254-0.99-0.475-1.489-0.664
			S80.672,6.377,80.19,6.377z"/>
		<path fill="#666666" d="M91.454,18.34h-2.798V6.582h-3.583v-2.52h9.964v2.52h-3.583V18.34z"/>
		<path fill="#666666" d="M97.068,4.063h2.518v6.895l-0.036,1.846l-0.09,2.1h0.054l6.093-10.84h3.348V18.34h-2.491v-6.855
			c0-0.918,0.054-2.279,0.162-4.082h-0.072l-6.119,10.938h-3.367V4.063z"/>
		<path fill="#666666" d="M117.376,18.34h-2.798V6.582h-3.583v-2.52h9.964v2.52h-3.583V18.34z"/>
		<path fill="#666666" d="M133.397,4.063l-4.08,10.098c-0.512,1.27-0.992,2.181-1.439,2.734c-0.449,0.554-0.979,0.965-1.593,1.235
			s-1.36,0.405-2.238,0.405c-0.752,0-1.453-0.098-2.103-0.293v-2.598c0.529,0.234,1.188,0.352,1.977,0.352
			c0.5,0,0.903-0.125,1.209-0.376s0.563-0.685,0.767-1.304L121.33,4.063h2.96l3.249,7.959h0.09l0.163-0.488l2.726-7.471H133.397z"/>
		<path fill="#666666" d="M140.148,18.34h-2.798V6.582h-3.583v-2.52h9.964v2.52h-3.583V18.34z"/>
		<path fill="#666666" d="M150.564,18.34V4.063h2.797V18.34H150.564z"/>
		<path fill="#666666" d="M162.289,6.377c-1.054,0-1.869,0.428-2.446,1.284s-0.866,2.049-0.866,3.579
			c0,3.184,1.104,4.775,3.313,4.775c0.926,0,2.049-0.25,3.366-0.752v2.539c-1.083,0.488-2.293,0.732-3.628,0.732
			c-1.92,0-3.389-0.63-4.404-1.89c-1.018-1.26-1.525-3.068-1.525-5.425c0-1.484,0.249-2.785,0.748-3.901
			c0.5-1.117,1.217-1.973,2.152-2.568c0.937-0.596,2.033-0.894,3.291-0.894c1.281,0,2.568,0.335,3.862,1.006l-0.902,2.461
			c-0.493-0.254-0.99-0.475-1.489-0.664S162.77,6.377,162.289,6.377z"/>
		<path fill="#666666" d="M173.553,18.34h-2.798V6.582h-3.583v-2.52h9.964v2.52h-3.583V18.34z"/>
		<path fill="#666666" d="M191.144,11.182c0,2.363-0.541,4.18-1.624,5.449c-1.084,1.27-2.636,1.904-4.658,1.904
			c-2.021,0-3.573-0.635-4.657-1.904c-1.083-1.27-1.624-3.092-1.624-5.469s0.543-4.191,1.629-5.444s2.643-1.88,4.671-1.88
			c2.027,0,3.579,0.631,4.652,1.895C190.606,6.996,191.144,8.812,191.144,11.182z M181.514,11.182c0,1.595,0.279,2.796,0.839,3.604
			s1.396,1.211,2.509,1.211c2.232,0,3.349-1.605,3.349-4.814c0-3.216-1.109-4.824-3.33-4.824c-1.113,0-1.953,0.405-2.519,1.216
			S181.514,9.586,181.514,11.182z"/>
		<path fill="#666666" d="M202.994,8.516c0,1.537-0.443,2.711-1.331,3.525s-2.149,1.221-3.786,1.221h-1.2v5.078h-2.798V4.063h4.215
			c1.601,0,2.817,0.373,3.65,1.118C202.578,5.926,202.994,7.038,202.994,8.516z M196.677,10.781h0.92
			c0.86,0,1.505-0.184,1.932-0.552c0.428-0.368,0.641-0.903,0.641-1.606c0-0.709-0.179-1.234-0.536-1.572
			c-0.358-0.338-0.92-0.508-1.684-0.508h-1.272V10.781z"/>
		<path fill="#666666" d="M205.486,18.34V4.063h2.798V18.34H205.486z"/>
		<path fill="#666666" d="M209.917,1.318c0-0.423,0.113-0.749,0.339-0.977S210.787,0,211.172,0c0.397,0,0.708,0.121,0.935,0.361
			c0.226,0.241,0.338,0.56,0.338,0.957c0,0.391-0.114,0.705-0.343,0.942s-0.539,0.356-0.93,0.356c-0.385,0-0.69-0.114-0.916-0.342
			S209.917,1.729,209.917,1.318z M211.605,18.34V4.063h2.798V18.34H211.605z M213.555,1.318c0-0.456,0.122-0.79,0.365-1.001
			C214.164,0.106,214.466,0,214.827,0c0.392,0,0.702,0.117,0.935,0.352c0.231,0.234,0.347,0.557,0.347,0.967
			c0,0.397-0.117,0.713-0.352,0.947s-0.545,0.352-0.93,0.352c-0.361,0-0.663-0.106-0.907-0.317
			C213.677,2.088,213.555,1.761,213.555,1.318z"/>
		<path fill="#666666" d="M232.933,4.063l-4.08,10.098c-0.511,1.27-0.991,2.181-1.439,2.734c-0.448,0.554-0.979,0.965-1.593,1.235
			s-1.36,0.405-2.238,0.405c-0.752,0-1.453-0.098-2.104-0.293v-2.598c0.53,0.234,1.188,0.352,1.978,0.352
			c0.499,0,0.902-0.125,1.209-0.376s0.563-0.685,0.768-1.304l-4.567-10.254h2.96l3.25,7.959h0.09l0.162-0.488l2.727-7.471H232.933z"
			/>
		<path fill="#666666" d="M245.352,18.34h-3.177l-4.783-7.236v7.236h-2.798V4.063h2.798v6.914l4.729-6.914h2.979l-4.812,6.855
			L245.352,18.34z"/>
		<path fill="#666666" d="M256.128,8.516c0,1.537-0.443,2.711-1.331,3.525s-2.149,1.221-3.786,1.221h-1.2v5.078h-2.798V4.063h4.215
			c1.601,0,2.817,0.373,3.65,1.118C255.712,5.926,256.128,7.038,256.128,8.516z M249.811,10.781h0.92
			c0.86,0,1.505-0.184,1.932-0.552c0.428-0.368,0.641-0.903,0.641-1.606c0-0.709-0.179-1.234-0.536-1.572
			c-0.358-0.338-0.92-0.508-1.684-0.508h-1.272V10.781z"/>
		<path fill="#666666" d="M266.697,18.34l-0.956-3.398h-4.811l-0.957,3.398h-3.015l4.657-14.336h3.421l4.675,14.336H266.697z
			 M265.073,12.402c-0.885-3.08-1.383-4.821-1.494-5.225s-0.19-0.723-0.239-0.957c-0.198,0.833-0.767,2.894-1.705,6.182H265.073z"/>
		<path fill="#666666" d="M269.685,1.318c0-0.423,0.113-0.749,0.339-0.977S270.555,0,270.939,0c0.397,0,0.708,0.121,0.935,0.361
			c0.226,0.241,0.338,0.56,0.338,0.957c0,0.391-0.114,0.705-0.343,0.942s-0.539,0.356-0.93,0.356c-0.385,0-0.69-0.114-0.916-0.342
			S269.685,1.729,269.685,1.318z M271.373,18.34V4.063h2.798V18.34H271.373z M273.322,1.318c0-0.456,0.122-0.79,0.365-1.001
			C273.932,0.106,274.233,0,274.595,0c0.392,0,0.702,0.117,0.935,0.352c0.231,0.234,0.347,0.557,0.347,0.967
			c0,0.397-0.117,0.713-0.352,0.947s-0.545,0.352-0.93,0.352c-0.361,0-0.663-0.106-0.907-0.317
			C273.444,2.088,273.322,1.761,273.322,1.318z"/>
		<path fill="#666666" d="M288.305,18.34h-2.789v-6.162h-5.226v6.162h-2.798V4.063h2.798v5.596h5.226V4.063h2.789V18.34z"/>
		<path fill="#666666" d="M291.636,4.063h2.518v6.895l-0.036,1.846l-0.09,2.1h0.054l6.093-10.84h3.349V18.34h-2.491v-6.855
			c0-0.918,0.054-2.279,0.162-4.082h-0.072l-6.119,10.938h-3.366V4.063z"/>
	</g>
</g>
<g id="Слой_3">
	<g>
		<path fill="#666666" d="M55.342,23.873v2.818h3.819v-2.818h1.03v6.736h-1.03v-3.158h-3.819v3.158h-1.019v-6.736H55.342z"/>
		<path fill="#666666" d="M64.612,28.49l-0.82,2.119h-1.054l2.682-6.736h1.229l2.694,6.736h-1.089l-0.843-2.119H64.612z
			 M67.2,27.811l-0.773-1.938c-0.176-0.439-0.292-0.84-0.41-1.229h-0.023c-0.117,0.399-0.246,0.81-0.398,1.22l-0.773,1.948H67.2z"/>
		<path fill="#666666" d="M72.897,23.873v6.007h3.62v-6.007h1.031v6.026l0.691,0.021l-0.07,2.309H77.36l-0.07-1.619h-5.412v-6.736
			H72.897z"/>
		<path fill="#666666" d="M81.909,23.873v6.736h-1.019v-6.736H81.909z"/>
		<path fill="#666666" d="M91.81,27.171c0,2.319-1.652,3.549-3.667,3.549c-2.085,0-3.549-1.38-3.549-3.419
			c0-2.139,1.558-3.538,3.667-3.538C90.416,23.763,91.81,25.172,91.81,27.171z M85.683,27.281c0,1.439,0.914,2.729,2.519,2.729
			c1.616,0,2.53-1.27,2.53-2.799c0-1.339-0.82-2.738-2.519-2.738C86.527,24.473,85.683,25.802,85.683,27.281z"/>
		<path fill="#666666" d="M95.527,23.873v2.818h3.819v-2.818h1.031v6.736h-1.031v-3.158h-3.819v3.158h-1.019v-6.736H95.527z"/>
		<path fill="#666666" d="M104.798,28.49l-0.82,2.119h-1.054l2.682-6.736h1.229l2.694,6.736h-1.089l-0.843-2.119H104.798z
			 M107.386,27.811l-0.773-1.938c-0.175-0.439-0.292-0.84-0.41-1.229h-0.023c-0.117,0.399-0.246,0.81-0.398,1.22l-0.773,1.948
			H107.386z"/>
		<path fill="#666666" d="M117.651,23.873v6.736h-1.031v-6.007h-2.612v2.039c0,1.459-0.07,3.088-1.183,3.728
			c-0.293,0.16-0.75,0.32-1.207,0.32l-0.128-0.7c0.316-0.05,0.644-0.209,0.831-0.359c0.632-0.529,0.691-1.839,0.691-2.918v-2.839
			H117.651z"/>
		<path fill="#666666" d="M121.814,23.873v2.519c0.234-0.03,0.703-0.05,0.972-0.05c1.616,0,3.045,0.609,3.045,2.099
			c0,0.63-0.234,1.09-0.609,1.439c-0.644,0.579-1.745,0.789-2.834,0.789c-0.714,0-1.253-0.04-1.593-0.079v-6.717H121.814z
			 M121.814,29.939c0.234,0.04,0.492,0.05,0.843,0.05c1.136,0,2.108-0.47,2.108-1.499c0-1.06-0.996-1.459-2.12-1.459
			c-0.258,0-0.574,0.021-0.832,0.05V29.939z"/>
		<path fill="#666666" d="M129.537,23.873v2.818h3.819v-2.818h1.03v6.736h-1.03v-3.158h-3.819v3.158h-1.019v-6.736H129.537z"/>
		<path fill="#666666" d="M138.808,28.49l-0.82,2.119h-1.054l2.682-6.736h1.23l2.694,6.736h-1.089l-0.843-2.119H138.808z
			 M141.396,27.811l-0.773-1.938c-0.176-0.439-0.292-0.84-0.41-1.229h-0.023c-0.117,0.399-0.246,0.81-0.398,1.22l-0.773,1.948
			H141.396z"/>
		<path fill="#666666" d="M151.207,28.49l-0.82,2.119h-1.054l2.682-6.736h1.229l2.694,6.736h-1.089l-0.844-2.119H151.207z
			 M153.795,27.811l-0.773-1.938c-0.175-0.439-0.292-0.84-0.409-1.229h-0.023c-0.118,0.399-0.246,0.81-0.398,1.22l-0.772,1.948
			H153.795z"/>
		<path fill="#666666" d="M159.48,23.873v2.988h0.316l2.706-2.988h1.229l-2.987,3.088c1.301,0.15,1.804,0.83,2.214,1.739
			c0.293,0.689,0.517,1.31,0.867,1.909h-1.101c-0.281-0.46-0.505-1.06-0.715-1.589c-0.363-0.89-0.867-1.499-2.202-1.499h-0.328
			v3.088h-1.007v-6.736H159.48z"/>
		<path fill="#666666" d="M167.532,28.49l-0.82,2.119h-1.054l2.682-6.736h1.229l2.694,6.736h-1.089l-0.844-2.119H167.532z
			 M170.121,27.811l-0.773-1.938c-0.176-0.439-0.293-0.84-0.41-1.229h-0.024c-0.116,0.399-0.245,0.81-0.397,1.22l-0.773,1.948
			H170.121z"/>
		<path fill="#666666" d="M180.503,23.873v6.026l0.691,0.021l-0.071,2.309h-0.797l-0.069-1.619h-4.979l-0.069,1.619h-0.797
			l-0.071-2.309l0.598-0.021c0.293-0.459,0.587-0.949,0.773-1.479c0.27-0.78,0.375-1.68,0.375-2.839v-1.709H180.503z
			 M177.036,25.862c0,1.079-0.118,1.988-0.399,2.748c-0.163,0.47-0.41,0.92-0.644,1.279h3.49v-5.297h-2.447V25.862z"/>
		<path fill="#666666" d="M187.945,27.451h-3.068v2.429h3.42v0.729h-4.439v-6.736h4.265v0.729h-3.245v2.129h3.068V27.451z"/>
		<path fill="#666666" d="M197.647,27.651c-0.059-0.939-0.129-2.069-0.117-2.909h-0.035c-0.27,0.79-0.598,1.63-0.996,2.559
			l-1.394,3.269h-0.773l-1.276-3.208c-0.374-0.949-0.69-1.819-0.914-2.619h-0.023c-0.023,0.84-0.081,1.97-0.151,2.979l-0.212,2.889
			h-0.972l0.551-6.736h1.301l1.346,3.258c0.328,0.83,0.599,1.569,0.797,2.27h0.036c0.198-0.68,0.479-1.42,0.831-2.27l1.406-3.258
			h1.3l0.491,6.736h-0.995L197.647,27.651z"/>
		<path fill="#666666" d="M202.807,23.873v6.736h-1.02v-6.736H202.807z"/>
		<path fill="#666666" d="M205.245,30.609c0.118-0.18,0.223-0.39,0.316-0.609c0.34-0.77,0.551-1.709,1.195-2.259
			c0.188-0.16,0.422-0.28,0.655-0.34v-0.03c-0.972-0.14-1.744-0.739-1.744-1.659c0-0.59,0.28-1.06,0.726-1.369
			c0.492-0.34,1.265-0.52,2.261-0.52c0.667,0,1.37,0.05,1.886,0.14v6.646h-1.02v-2.918h-0.749c-0.492,0-0.855,0.09-1.137,0.329
			c-0.539,0.47-0.761,1.46-1.042,2.1c-0.082,0.169-0.141,0.31-0.259,0.489H205.245z M209.521,24.572
			c-0.176-0.029-0.503-0.079-0.961-0.079c-1.006,0-1.862,0.329-1.862,1.259c0,0.81,0.845,1.279,1.957,1.279
			c0.339,0,0.667,0,0.866-0.01V24.572z"/>
		<path fill="#666666" d="M218.569,23.873v2.818h3.818v-2.818h1.031v6.736h-1.031v-3.158h-3.818v3.158h-1.02v-6.736H218.569z"/>
		<path fill="#666666" d="M227.839,28.49l-0.82,2.119h-1.054l2.682-6.736h1.229l2.694,6.736h-1.089l-0.844-2.119H227.839z
			 M230.428,27.811l-0.773-1.938c-0.176-0.439-0.293-0.84-0.41-1.229h-0.024c-0.116,0.399-0.245,0.81-0.397,1.22l-0.773,1.948
			H230.428z"/>
		<path fill="#666666" d="M235.351,23.873l1.569,2.868c0.199,0.4,0.387,0.79,0.574,1.189h0.023c0.141-0.35,0.293-0.739,0.492-1.219
			l1.23-2.839h1.076l-1.65,3.458c-0.434,0.899-0.925,1.929-1.477,2.559c-0.515,0.55-1.089,0.83-1.792,0.83
			c-0.257,0-0.445-0.021-0.573-0.061l0.104-0.709c0.082,0.02,0.2,0.029,0.375,0.029c0.82-0.01,1.301-0.68,1.546-1.159
			c0.082-0.149,0.059-0.25-0.035-0.41l-2.623-4.537H235.351z"/>
		<path fill="#666666" d="M243.543,23.873v2.988h0.316l2.706-2.988h1.229l-2.987,3.088c1.301,0.15,1.805,0.83,2.214,1.739
			c0.293,0.689,0.517,1.31,0.868,1.909h-1.102c-0.281-0.46-0.504-1.06-0.715-1.589c-0.363-0.89-0.866-1.499-2.202-1.499h-0.328
			v3.088h-1.008v-6.736H243.543z"/>
		<path fill="#666666" d="M254.407,23.873l1.569,2.868c0.199,0.4,0.387,0.79,0.574,1.189h0.023c0.141-0.35,0.293-0.739,0.492-1.219
			l1.23-2.839h1.076l-1.65,3.458c-0.434,0.899-0.926,1.929-1.477,2.559c-0.515,0.55-1.089,0.83-1.792,0.83
			c-0.257,0-0.445-0.021-0.573-0.061l0.104-0.709c0.082,0.02,0.2,0.029,0.375,0.029c0.82-0.01,1.301-0.68,1.546-1.159
			c0.082-0.149,0.059-0.25-0.035-0.41l-2.623-4.537H254.407z"/>
		<path fill="#666666" d="M262.599,23.873v2.988h0.316l2.706-2.988h1.229l-2.987,3.088c1.301,0.15,1.805,0.83,2.214,1.739
			c0.293,0.689,0.517,1.31,0.867,1.909h-1.101c-0.281-0.46-0.504-1.06-0.715-1.589c-0.363-0.89-0.867-1.499-2.202-1.499h-0.328
			v3.088h-1.008v-6.736H262.599z"/>
		<path fill="#666666" d="M269.313,23.953c0.492-0.07,1.136-0.13,1.957-0.13c1.007,0,1.744,0.2,2.213,0.56
			c0.435,0.319,0.691,0.81,0.691,1.409c0,0.609-0.211,1.09-0.608,1.439c-0.54,0.489-1.418,0.739-2.414,0.739
			c-0.305,0-0.585-0.01-0.819-0.06v2.698h-1.02V23.953z M270.333,27.201c0.223,0.05,0.503,0.07,0.843,0.07
			c1.23,0,1.98-0.51,1.98-1.439c0-0.89-0.738-1.319-1.862-1.319c-0.446,0-0.785,0.03-0.961,0.07V27.201z"/>
		<path fill="#666666" d="M277.213,28.49l-0.819,2.119h-1.055l2.683-6.736h1.229l2.693,6.736h-1.089l-0.844-2.119H277.213z
			 M279.802,27.811l-0.773-1.938c-0.176-0.439-0.293-0.84-0.409-1.229h-0.024c-0.117,0.399-0.245,0.81-0.398,1.22l-0.773,1.948
			H279.802z"/>
		<path fill="#666666" d="M283.331,22.894c0-0.27,0.258-0.5,0.586-0.5s0.562,0.22,0.562,0.5s-0.222,0.51-0.562,0.51
			C283.565,23.403,283.331,23.174,283.331,22.894z M285.498,23.873v6.736h-1.02v-6.736H285.498z M285.51,22.894
			c0-0.27,0.246-0.5,0.586-0.5c0.328,0,0.562,0.22,0.562,0.5s-0.222,0.51-0.573,0.51C285.744,23.403,285.51,23.174,285.51,22.894z"
			/>
		<path fill="#666666" d="M289.671,23.873v2.818h3.818v-2.818h1.031v6.736h-1.031v-3.158h-3.818v3.158h-1.02v-6.736H289.671z"/>
		<path fill="#666666" d="M298.624,23.873v2.839c0,1.069-0.023,1.948-0.094,2.848l0.023,0.011c0.398-0.7,0.89-1.43,1.464-2.229
			l2.553-3.468h1.02v6.736h-0.96v-2.868c0-1.09,0.012-1.89,0.094-2.738l-0.035-0.011c-0.387,0.74-0.926,1.52-1.465,2.269
			l-2.472,3.349h-1.089v-6.736H298.624z"/>
	</g>
</g>
</svg>
