<?xml version="1.0" encoding="utf-8"?>
<!-- Generator: Adobe Illustrator 16.0.2, SVG Export Plug-In . SVG Version: 6.00 Build 0)  -->
<!DOCTYPE svg PUBLIC "-//W3C//DTD SVG 1.1//EN" "http://www.w3.org/Graphics/SVG/1.1/DTD/svg11.dtd">
<svg version="1.1" id="Слой_1" xmlns="http://www.w3.org/2000/svg" xmlns:xlink="http://www.w3.org/1999/xlink" x="0px" y="0px"
	 width="150px" height="100px" viewBox="0 0 150 100" enable-background="new 0 0 150 100" xml:space="preserve">
<path fill="#941A21" d="M83.247,41.471c2.186,5.868-9.802,19.056-10.635,28.213c-0.278,3.053,3.424,2.578,2.571,3.865
	c-1.344,2.027-7.087,5.601-8.232-1.009c-1.128-6.507,1.193-9.419,3.888-14.27c0.655-1.181,5.759-10.306,5.016-11.856
	c-0.461-0.965-1.306-0.428-2.437-0.042c-1.183,0.405-5.954-0.711-4.862-2.762c1.867-3.498-4.935-3.521-5.414-3.555
	c-1.509-0.107-6.665,1.96-13.498,12.378c-10.53,16.054-1.847,25.145,8.543,12.823c4.565-5.415,9.323-14.505,8.847-19.599
	c-0.214-2.295,4.41-2.479,5.25-5.292c0.403-1.347-2.565-2.904-1.811-4.195c3.565-6.098,6.642-13.531,10.758-22.604
	c2.066-4.553-1.302-2.184-5.459-2.939C71.886,9.922,48.009,3.112,42.483,4.47c-3.759,0.923-6.222,6.647-8.799,12.795
	c-8.128,19.396-22.14,57.139-22.513,62.501c-0.152,2.187,3.024,4.145,16.69,1.456c7.244-1.425,24.068-5.576,32.707-4.828
	c6.608,0.571,10.024,5.262,12.656,5.5c2.464,0.225,5.286-4.662,11.313-5.265c10.082-1.007,44.69,11.089,50.181,5.153
	c1.443-1.563-1.779-11.132-3.374-16.255c-0.655-2.102-2.271-8.13-4.159-14.576c-1.219-4.158-1.975-5.712-9.325-6.762
	c-2.998-0.43-2.926,0.935-4.444,3.295c-3.276,5.095-7.185,12.45-12.525,16.766c-9.632,7.785-17.081,8.064-20.15,5.092
	c-6.959-6.745,2.443-18.072,5.813-21.444c1.893-1.895,6.608-6.721,15.015-7.807c3.247-0.42,7.708-0.759,9.515-2.498
	c2.969-2.856,4.214-6.845,4.72-11.591c0.221-2.083,5.118-8.335,6.276-10.047c6.271-9.28,2.425-0.445-5.762,8.797
	c-1.506,1.699-3.684,4.099-5.261,5.914c-1.272,1.464-2.824,3.103-4.41,4.157c-6.637,4.412-7.498-4.199-6.722-10.249
	c0.38-2.939,0.617-10.763,0.168-12.811c-0.463-2.1-2.387-1.847-3.737,0.125c-5.602,8.178-4.572,16.462-3.359,17.25
	c1.118,0.729,3.894,0.375,3.927,0.791c0.126,1.598-0.021,2.563,0.271,3.949c0.257,1.205-5.814,1.352-7.592-2.241
	c-1.144-2.317-0.935-8.598,1.264-14.596c1.793-4.89,4.217-7.972,4.65-8.512c2.89-3.626,6.109-5.789,8.482-3.738
	c1.85,1.596,0.985,10.899,0.924,12.979c-0.154,5.333-0.126,15.457,2.465,12.105c6.257-8.102,6.156-11.656,16.227-23.615
	c3.347-3.974,12.653-10.957,4.002,5.636c-1.703,3.264-2.886,5.722-3.288,7.638c-0.312,1.482-0.597,8.578-0.042,12.054
	c0.788,4.939,3.66,9.589,4.243,11.845c0.243,0.935-1.994,0.926-2.142,1.177c-0.831,1.402-5.636-13.437-6.176-12.559
	c-3.133,5.098-5.963,8.449-10.079,12.321c-0.94,0.883-4.984-0.255-8.01-0.226c-5.879,0.056-9.968,3.024-13.272,6.161
	c-3.869,3.672-9.744,10.752-5.489,15.568c3.356,3.799,10.326,0.589,14.617-3.584c10.053-9.774,10.587-16.689,10.727-17.976
	c0.25-2.311,9.501-9.177,8.961-8.411c-0.15,0.21-0.005,1.289,0.335,2.307c0.477,1.429,3.556,2.081,6.411,2.913
	c4.157,1.211,4.074,1.157,5.294,5.166c2.015,6.637,5.57,19.056,6.089,21.085c0.87,3.396,5.237,15.104,2.688,17.414
	c-6.566,5.954-40.393-6.031-52.95-4.962c-7.388,0.63-9.396,7.293-12.364,7.293c-3.417,0-6.289-7.012-12.829-7.368
	c-7.948-0.434-23.457,2.189-32.255,4.495C18.001,86.887,3.76,87.45,7.172,78.769c1.479-3.761,15.309-41.96,23.824-64.304
	c2.72-7.136,6.609-12.096,11.089-13.11c7.91-1.791,30.084,6.418,37.477,5.409c5.217-0.711,14.628-4.582,12.003-0.2
	C79.216,27.178,76.578,40.157,70.086,53.722c-4.368,9.128-8.18,13.739-13.354,17.561c-5.993,4.424-17.839,5.513-14.815-10.616
	c1.342-7.159,12.265-22.123,19.938-25.425c2.144-0.925,3.63,0.56,5.712,0.728c2.082,0.167,3.036-0.284,3.368-0.598
	c1.322-1.249,2.599,6.059,4.794,6.131C76.947,41.542,82.723,40.059,83.247,41.471z"/>
<path fill="#941A21" d="M138.683,91.781c-1.324,0.137-49.532-0.107-54.034,0.529c-4.165,0.589-5.825,6.95-11.692,6.95
	c-5.222,0-8.165-6.974-11.829-7.174c-7.275-0.396-48.251-0.146-52.197-0.225c-4.599-0.092-4.045-3.623-1.568-3.696
	c12.992-0.39,52.547,0.125,55.78,0.448c3.359,0.337,5.824,6.608,9.813,6.72c4.746,0.134,5.906-6.087,9.46-6.64
	c4.132-0.642,47.851-0.14,56.854-0.528C144.461,87.942,144.349,91.19,138.683,91.781z"/>
</svg>
